# xmcd CD database file
#
# Track frame offsets:
#	150
#	34199
#	63259
#	91569
#	113644
#	136522
#	159303
#	209765
#	234399
#	264218
#
# Disc length: 3846 seconds
#
# Revision: 0
# Processed by: cddbd v1.5.2PL0 Copyright (c) Steve Scherf et al.
# Submitted via: CDex 1.51
#
DISCID=730f040a
DTITLE=Timo Alakotila and Johanna Juhola - Vapaassa tilassa
DYEAR=2007
DGENRE=Jazz
TTITLE0=Bali
TTITLE1=Sylvesteri
TTITLE2=Vapaassa tilassa
TTITLE3=Paluu
TTITLE4=Sheridan
TTITLE5=Yli siniviivan
TTITLE6=Menuetti ja polska
TTITLE7=≈re polska
TTITLE8=Kev‰‰n ensimm‰inen tango
TTITLE9=Heini
EXTD=YEAR: 2007
EXTT0=
EXTT1=
EXTT2=
EXTT3=
EXTT4=
EXTT5=
EXTT6=
EXTT7=
EXTT8=
EXTT9=
PLAYORDER=
